<svg width="63" height="42" viewBox="0 0 63 42" fill="none" xmlns="http://www.w3.org/2000/svg">
<path fill-rule="evenodd" clip-rule="evenodd" d="M31.5 2.83238C34.5913 1.04163 38.1705 0 42 0C53.5977 0 63 9.40209 63 21C63 32.5979 53.5977 42 42 42C38.1705 42 34.5913 40.9584 31.5 39.1676C28.4087 40.9584 24.8295 42 21 42C9.40226 42 0 32.5979 0 21C0 9.40209 9.40226 0 21 0C24.8295 0 28.4087 1.04163 31.5 2.83238ZM29.5851 34.5466C32.8202 37.5135 37.33 39.375 42 39.375C52.1322 39.375 60.375 31.132 60.375 21C60.375 10.868 52.1322 2.625 42 2.625C38.1106 2.625 34.4137 3.90403 31.5002 5.94234C31.498 5.9407 31.4951 5.93972 31.4931 5.93808C30.7881 6.43092 30.1063 6.96724 29.4766 7.55377L27.687 5.63325C28.0129 5.32976 28.3664 5.05788 28.7199 4.7859C28.8354 4.69707 28.9509 4.60823 29.0655 4.51828C29.0605 4.51576 29.0558 4.51278 29.0512 4.50982C29.0462 4.50662 29.0412 4.50345 29.0359 4.50089C26.6044 3.3116 23.8839 2.625 21 2.625C10.8678 2.625 2.625 10.868 2.625 21C2.625 31.132 10.8678 39.375 21 39.375C23.8768 39.375 26.5906 38.6912 29.0171 37.507C28.3784 36.9959 28.2847 36.9107 28.0503 36.6975C27.9859 36.639 27.9109 36.5708 27.8111 36.4814L29.5851 34.5466Z" fill="#4236AF"/>
<path d="M41.5217 16.0641C41.5191 16.0542 41.5162 16.0437 41.5138 16.0337C41.5132 16.031 41.5119 16.0263 41.5112 16.0236C41.5106 16.0217 41.5103 16.0202 41.5103 16.0202C41.5093 16.0163 41.5087 16.0139 41.508 16.0117C41.5074 16.0095 41.5067 16.0072 41.5061 16.005C41.5054 16.0033 41.5054 16.0016 41.5048 16L39 16.5531C39.2097 17.3531 39.3553 18.1764 39.4327 19L42 18.7972C41.9126 17.8651 41.7512 16.9525 41.5217 16.0641Z" fill="#4236AF"/>
<path d="M40.8813 12.6838C40.8764 12.6731 40.8574 12.63 40.8472 12.6074C40.1386 11.031 40.2173 11.4475 39.4642 10L37 11.4129C37.5135 12.2398 37.9654 13.1103 38.3431 14L41 12.9582C40.9415 12.8196 40.8813 12.6838 40.8813 12.6838Z" fill="#4236AF"/>
<path d="M36.2848 6.48508C35.8089 5.96692 35.3514 5.50601 34.7894 5L33 6.97728C33.693 7.60064 34.3443 8.2811 34.936 9L37 7.30985C36.7144 6.96263 36.2848 6.48508 36.2848 6.48508Z" fill="#4236AF"/>
<path d="M39.3763 22C39.3191 22.8388 39.1926 23.6782 39 24.495L41.5705 25C41.5712 24.9962 41.5722 24.9919 41.5731 24.9881C41.5735 24.9863 41.5738 24.9847 41.5745 24.9827C41.5751 24.9803 41.5758 24.9775 41.5764 24.9749C41.5768 24.9731 41.5771 24.9715 41.5777 24.9695C41.5784 24.9667 41.5791 24.9634 41.5797 24.9604C41.58 24.959 41.5804 24.9578 41.5804 24.9578C41.5817 24.9523 41.5827 24.9485 41.5835 24.9442C41.5838 24.9427 41.5842 24.9409 41.5842 24.9409C41.5851 24.937 41.5861 24.9331 41.5868 24.9308C41.5868 24.9308 41.5874 24.9275 41.5878 24.9257C41.5888 24.9215 41.5894 24.9178 41.5907 24.9136C41.5917 24.9094 41.5927 24.9041 41.5938 24.8998C41.5945 24.896 41.5965 24.889 41.597 24.8852C41.5986 24.8777 41.6137 24.8105 41.6137 24.8105C41.8114 23.9294 41.9392 23.0459 42 22.1487L39.3763 22Z" fill="#4236AF"/>
<path d="M38.2903 27C37.9319 27.9043 37.4977 28.7913 37 29.6354L39.5244 31C40.0949 30.0323 40.5884 29.0247 41 27.9861L38.2903 27Z" fill="#4236AF"/>
<path d="M35.8912 32C35.3153 32.7323 34.679 33.4277 34 34.0674L35.8405 36C36.3526 35.5179 36.8745 34.9669 37.0353 34.7819C37.062 34.7819 37.96 33.6904 37.9764 33.6696C37.9843 33.6595 37.9921 33.6495 38 33.6393L35.8912 32Z" fill="#4236AF"/>
<path d="M23.9365 21.4198C23.9365 21.0011 23.9538 20.5861 23.9875 20.1748L21.0586 20C20.9998 20.7158 20.9848 21.4462 21.0156 22.1452C21.0156 22.1452 21.0646 22.9112 21.0731 23L24 22.8052C23.958 22.3482 23.9365 21.8861 23.9365 21.4198Z" fill="#4236AF"/>
<path d="M22.8178 13C22.5168 13.9684 22.2558 15.0649 22.1898 15.3956C22.1619 15.5185 22.0726 15.9534 22 16.3605L24.2851 17C24.4633 16.0029 24.7039 15.0147 25 14.0629L22.8178 13Z" fill="#4236AF"/>
<path d="M25.8504 8C25.1686 8.83872 24.5499 9.72812 24 10.662L26.3806 12C26.858 11.1885 27.4029 10.4048 28 9.67023L25.8504 8Z" fill="#4236AF"/>
<path d="M26.3646 30L24 31.3553C24.2713 31.8085 24.559 32.2511 24.8627 32.6824C25.1751 33.1245 25.497 33.5502 25.8683 34L28 32.3147C27.3976 31.5858 26.8478 30.807 26.3646 30Z" fill="#4236AF"/>
<path d="M24.2696 25L22 25.6603C22.0987 26.192 22.2113 26.7162 22.3382 27.2333C22.345 27.2599 22.3421 27.2491 22.3552 27.3015C22.4997 27.8808 22.6482 28.4116 22.8354 29L25 27.9191C24.6993 26.9735 24.4534 25.9915 24.2696 25Z" fill="#4236AF"/>
</svg>
