<svg width="59" height="63" viewBox="0 0 59 63" fill="none" xmlns="http://www.w3.org/2000/svg">
<path fill-rule="evenodd" clip-rule="evenodd" d="M42 12.5C42 19.4036 36.4036 25 29.5 25C22.5995 24.9924 17.0076 19.4005 17 12.5C17 5.59642 22.5964 0 29.5 0C36.4036 0 42 5.59642 42 12.5ZM39.9167 12.5C39.9167 6.74693 35.2531 2.08333 29.5 2.08333C23.7495 2.08944 19.0894 6.74947 19.0833 12.5C19.0833 18.2531 23.7469 22.9167 29.5 22.9167C35.2531 22.9167 39.9167 18.2531 39.9167 12.5Z" fill="#4236AF"/>
<path fill-rule="evenodd" clip-rule="evenodd" d="M29.2644 18.076C28.0441 19.2437 26.1232 19.2437 24.9024 18.076C23.6988 16.8684 23.6993 14.9118 24.9034 13.7047L25.6303 12.9762L24.9034 12.2477C23.6993 11.0407 23.6993 9.08297 24.9034 7.87545C26.1242 6.70818 28.0441 6.70818 29.2644 7.87545L29.9912 8.60399L30.717 7.87646C31.9372 6.70869 33.8582 6.70869 35.0789 7.87646C36.2826 9.08398 36.2826 11.0407 35.0789 12.2477L34.3521 12.9762L35.0789 13.7047C35.8685 14.4836 36.1807 15.6267 35.8971 16.7004C35.6135 17.7736 34.7773 18.6118 33.7066 18.8966C32.6359 19.1813 31.495 18.8684 30.718 18.077L29.9912 17.3484L29.2644 18.076ZM26.3571 10.7906L27.8107 12.2477C28.2123 12.6502 28.2123 13.3022 27.8107 13.7047L26.3571 15.1618C26.1643 15.355 26.0559 15.6172 26.0559 15.8909C26.0559 16.1641 26.1643 16.4267 26.3571 16.6199C26.7637 17.0093 27.4041 17.0093 27.8107 16.6199L29.2644 15.1628C29.6659 14.7603 30.3164 14.7603 30.718 15.1628L32.1716 16.6199C32.5777 17.0088 33.2177 17.0088 33.6243 16.6199C33.817 16.4267 33.9254 16.1641 33.9254 15.8909C33.9254 15.6172 33.817 15.355 33.6243 15.1618L32.1706 13.7047C31.7691 13.3022 31.7691 12.6502 32.1706 12.2477L33.6243 10.7906C33.817 10.5974 33.9254 10.3353 33.9254 10.0616C33.9254 9.78836 33.817 9.52573 33.6243 9.33252C33.2172 8.9441 32.5777 8.9441 32.1706 9.33252L30.717 10.7896C30.3154 11.1921 29.6649 11.1921 29.2634 10.7896L27.8097 9.33252C27.4031 8.9436 26.7637 8.9436 26.3571 9.33252C26.1643 9.52573 26.0559 9.78836 26.0559 10.0616C26.0559 10.3353 26.1643 10.5974 26.3571 10.7906Z" fill="#4236AF"/>
<path fill-rule="evenodd" clip-rule="evenodd" d="M15.625 46H17.7083C21.7336 46.0047 24.9954 49.3317 25 53.4375V59.8125C25 61.5728 23.6008 63 21.875 63H3.125C1.39923 63 0 61.5728 0 59.8125V53.4375C0.00457763 49.3317 3.2664 46.0047 7.29167 46H9.375V43.4247C7.47935 42.5806 6.25254 40.6725 6.25 38.5625V34.3125C6.25356 31.3797 8.58307 29.0036 11.4583 29H13.5417C16.4169 29.0036 18.7464 31.3797 18.75 34.3125V38.5625C18.7475 40.6725 17.5207 42.5806 15.625 43.4247V46ZM13.5417 31.125H11.4583C9.73256 31.125 8.33333 32.5522 8.33333 34.3125H10.2478L13.2126 33.304C13.5869 33.1774 13.9994 33.277 14.2782 33.5613L15.0146 34.3125H16.6667C16.6667 32.5522 15.2674 31.125 13.5417 31.125ZM8.33333 38.5625V36.4375H10.4167C10.5286 36.4375 10.6394 36.4193 10.7457 36.3835L13.2594 35.5332L13.8468 36.1314C14.0432 36.3291 14.3077 36.4391 14.5833 36.4375H16.6667V38.5625C16.6667 40.3228 15.2674 41.75 13.5417 41.75H11.4583C9.73256 41.75 8.33333 40.3228 8.33333 38.5625ZM13.5417 43.875H11.4583V46H13.5417V43.875ZM16.4373 48.125L14.771 56.625H10.228L8.56171 48.125H16.4373ZM21.875 60.875C22.4503 60.875 22.9167 60.3993 22.9167 59.8125V53.4375C22.908 50.8383 21.0571 48.6267 18.5415 48.2111L16.6458 57.9002C16.5466 58.3946 16.1199 58.75 15.625 58.75H9.375C8.88011 58.75 8.45337 58.3946 8.35419 57.9002L6.45854 48.2111C3.94287 48.6267 2.09198 50.8383 2.08333 53.4375V59.8125C2.08333 60.3993 2.54974 60.875 3.125 60.875H21.875Z" fill="#4236AF"/>
<path fill-rule="evenodd" clip-rule="evenodd" d="M49.625 46H51.7083C55.7336 46.0047 58.9954 49.3317 59 53.4375V59.8125C59 61.5728 57.6008 63 55.875 63H37.125C35.3992 63 34 61.5728 34 59.8125V53.4375C34.0046 49.3317 37.2664 46.0047 41.2917 46H43.375V43.4247C41.4793 42.5806 40.2525 40.6725 40.25 38.5625V34.3125C40.2536 31.3797 42.5831 29.0036 45.4583 29H47.5417C50.4169 29.0036 52.7464 31.3797 52.75 34.3125V38.5625C52.7475 40.6725 51.5207 42.5806 49.625 43.4247V46ZM47.5417 31.125H45.4583C43.7326 31.125 42.3333 32.5522 42.3333 34.3125H44.2478L47.2126 33.304C47.5869 33.1774 47.9994 33.277 48.2782 33.5613L49.0146 34.3125H50.6667C50.6667 32.5522 49.2674 31.125 47.5417 31.125ZM42.3333 38.5625V36.4375H44.4167C44.5286 36.4375 44.6394 36.4193 44.7457 36.3835L47.2594 35.5332L47.8468 36.1314C48.0432 36.3291 48.3077 36.4391 48.5833 36.4375H50.6667V38.5625C50.6667 40.3228 49.2674 41.75 47.5417 41.75H45.4583C43.7326 41.75 42.3333 40.3228 42.3333 38.5625ZM47.5417 43.875H45.4583V46H47.5417V43.875ZM50.4373 48.125L48.771 56.625H44.228L42.5617 48.125H50.4373ZM55.875 60.875C56.4503 60.875 56.9167 60.3993 56.9167 59.8125V53.4375C56.908 50.8383 55.0571 48.6267 52.5415 48.2111L50.6458 57.9002C50.5466 58.3946 50.1199 58.75 49.625 58.75H43.375C42.8801 58.75 42.4534 58.3946 42.3542 57.9002L40.4585 48.2111C37.9429 48.6267 36.092 50.8383 36.0833 53.4375V59.8125C36.0833 60.3993 36.5497 60.875 37.125 60.875H55.875Z" fill="#4236AF"/>
<path fill-rule="evenodd" clip-rule="evenodd" d="M32.4919 34.6357H38V36.8173H32.4919C32.0483 38.1244 30.8478 39 29.5 39C28.1522 39 26.9517 38.1244 26.5081 36.8173H21V34.6357H26.5081C26.8292 33.7116 27.5374 32.9846 28.4375 32.6549V27H30.5625V32.6549C31.4626 32.9846 32.1708 33.7116 32.4919 34.6357ZM28.4375 35.7265C28.4375 36.3289 28.9132 36.8173 29.5 36.8173C30.0868 36.8173 30.5625 36.3289 30.5625 35.7265C30.5625 35.1241 30.0868 34.6357 29.5 34.6357C28.9132 34.6357 28.4375 35.1241 28.4375 35.7265Z" fill="#4236AF"/>
</svg>
