<svg width="63" height="63" viewBox="0 0 63 63" fill="none" xmlns="http://www.w3.org/2000/svg">
<path fill-rule="evenodd" clip-rule="evenodd" d="M31.5374 41.0135L31.5278 41.0213C30.4079 42.0334 29.1376 42.8667 27.762 43.4918C26.4299 44.0379 25.0049 44.3235 23.5645 44.3331C22.3802 44.3391 21.2058 44.1173 20.1058 43.68C14.1573 41.2821 8.29647 35.0277 9.48912 26.958C10.7465 19.7298 17.0789 14.4769 24.4405 14.5552C25.206 14.5371 25.9502 14.5948 26.6726 14.6509C26.7879 14.6598 26.9027 14.6687 27.0169 14.6772C28.9125 14.9932 30.8582 14.8045 32.6572 14.1304C33.3443 13.8192 34.0098 13.4473 34.7129 13.0544L34.7353 13.0418C35.5817 12.5489 36.4545 12.1023 37.3496 11.7041C40.9682 10.2481 45.0856 10.7656 48.2281 13.0713C51.7346 15.4402 53.7838 19.4297 53.6615 23.6493C53.5064 26.653 52.1026 29.6924 49.4957 32.6834C47.8575 34.5545 45.8441 36.0628 43.5852 37.1111C41.586 37.9185 39.461 38.373 37.3053 38.4541C36.8937 38.492 36.48 38.5309 36.0662 38.5751C34.2939 38.7671 32.9535 39.8595 31.5374 41.0135ZM11.5768 27.264C10.5541 34.2094 15.6898 39.6299 20.8974 41.727C22.8709 42.448 25.0479 42.379 26.9715 41.5346C28.1457 40.9869 29.2299 40.2653 30.1874 39.3943C31.7843 38.0913 33.435 36.7451 35.8372 36.4853C36.2594 36.4401 36.6816 36.4001 37.1037 36.3602C39.0211 36.2965 40.9132 35.9052 42.6976 35.2033C44.6885 34.2804 46.4629 32.9515 47.9062 31.3025C49.4809 29.4957 51.3934 26.6824 51.557 23.5389C51.6443 20.0427 49.9324 16.7445 47.0186 14.795C44.4718 12.9095 41.1271 12.4718 38.1782 13.6382C37.3533 14.0078 36.5489 14.4214 35.7686 14.8771L35.7658 14.8786C35.0479 15.2799 34.3058 15.6947 33.5311 16.0466C31.4116 16.8737 29.1097 17.1252 26.8607 16.7754L26.8513 16.7747C26.0827 16.7181 25.2891 16.6597 24.4996 16.6597H24.4469C18.1058 16.6807 12.4517 21.3387 11.5768 27.264Z" fill="#4236AF"/>
<path fill-rule="evenodd" clip-rule="evenodd" d="M33.9444 31.6973C33.5102 31.585 33.0728 31.4737 32.6312 31.3731C30.6479 30.9259 29.4621 32.0046 27.6907 33.7943C27.3598 34.1312 27.0247 34.4724 26.6813 34.7903C25.6037 35.8923 24.1459 36.5254 22.6166 36.5556C22.0756 36.5542 21.5377 36.4735 21.0195 36.3161C18.3733 35.5225 15.9558 32.6859 15.1374 29.4181C14.3904 27.1136 14.8228 24.5828 16.2908 22.6684C18.0414 20.511 21.3222 19.3518 25.0686 19.5637C26.3494 19.6738 27.6179 19.9004 28.8588 20.2408C30.1766 20.632 31.5394 20.8458 32.912 20.8766C34.231 20.7123 35.4952 20.2429 36.6073 19.5044C38.2899 18.5783 40.1981 17.5293 42.599 18.0093C45.2929 18.3972 47.3305 20.6813 47.4445 23.4408C47.4445 27.1092 44.0509 30.4904 40.8578 31.8117C38.3869 32.8349 36.1309 32.2572 33.9469 31.6979L33.9444 31.6973ZM26.2167 32.2982L26.2168 32.2981L26.2172 32.2977C27.9352 30.5558 29.883 28.581 33.0801 29.3005C33.5348 29.4026 33.9845 29.518 34.4311 29.6327L34.4538 29.6385C36.4789 30.1609 38.2284 30.6101 40.0666 29.8504C42.6094 28.7972 45.3537 26.0496 45.3537 23.444C45.2157 21.7078 43.8965 20.3082 42.1939 20.0914C40.5292 19.7598 39.1818 20.5009 37.6164 21.3619L37.601 21.3704C36.2127 22.278 34.6309 22.836 32.9872 22.9979C31.4246 22.9772 29.8716 22.7456 28.3692 22.3092C27.2515 21.9962 26.1084 21.7853 24.9537 21.6787C24.6914 21.6639 24.4329 21.6565 24.1782 21.6565C21.4297 21.6565 19.1197 22.5158 17.9036 24.0152C16.8747 25.4178 16.596 27.2462 17.1593 28.8989C17.7971 31.4387 19.6687 33.7052 21.6113 34.288C22.9264 34.6616 24.3368 34.2571 25.2648 33.2401C25.5905 32.9339 25.9036 32.616 26.2167 32.2982Z" fill="#4236AF"/>
<path fill-rule="evenodd" clip-rule="evenodd" d="M20.5817 25.2923C22.0416 24.2043 23.9538 23.8415 25.7374 24.3142C27.1304 24.6704 28.0724 25.9109 27.9956 27.2881C27.892 28.1152 27.455 28.871 26.7776 29.3946L25.0787 30.9513C24.5587 31.4674 23.8676 31.7949 23.1234 31.878C23.0448 31.8889 22.9652 31.8889 22.8855 31.8889H22.8855C21.5117 31.7957 20.3263 30.9323 19.8672 29.6904C19.1049 28.2279 19.3914 26.4646 20.5817 25.2923ZM23.6466 29.5252L25.3444 27.9666C25.786 27.5611 25.91 27.4078 25.94 27.1061C25.918 26.6795 25.6055 26.3175 25.1717 26.2161C24.8512 26.1316 24.5199 26.09 24.1874 26.0924C23.3864 26.0676 22.6006 26.3052 21.9601 26.7659C21.4516 27.3747 21.3742 28.2157 21.7636 28.9002C22.0501 29.5282 22.5216 29.9267 22.9352 29.9079C23.2099 29.8588 23.46 29.7242 23.6466 29.5252Z" fill="#4236AF"/>
<path fill-rule="evenodd" clip-rule="evenodd" d="M59.85 0H3.15C1.4103 0 0 1.4103 0 3.15V59.85C0 61.5897 1.4103 63 3.15 63H59.85C61.5897 63 63 61.5897 63 59.85V3.15C63 1.4103 61.5897 0 59.85 0ZM60.9 48.3H52.7719C55.9478 46.0763 58.7004 43.3026 60.9 40.11V48.3ZM36.8214 46.7754C35.8655 47.1374 34.9747 47.6523 34.1838 48.3H48.9625C54.0395 45.4262 58.1832 41.1535 60.9 35.9908V11.4461C60.6805 11.0093 60.458 10.5892 60.2143 10.1693C58.3641 6.88535 55.7269 4.11256 52.5399 2.1H13.84C8.73427 4.70918 4.61418 8.90628 2.1 14.0595V48.3H13.8862C6.93073 42.711 3.40453 33.8915 4.58955 25.0478C5.75978 15.7317 13.2605 8.48834 22.6117 7.644C23.8219 7.56715 25.0367 7.61006 26.2385 7.7721L26.2914 7.77754L26.2914 7.77754C26.8869 7.83876 27.4815 7.89988 28.0781 7.92435C29.7865 7.94631 31.4675 7.49299 32.9333 6.615C34.9014 5.43642 37.08 4.65186 39.3477 4.305C44.6587 3.94864 49.8216 6.1446 53.2486 10.2176C56.9702 14.3698 58.8914 19.8296 58.59 25.3974C58.2039 30.3415 56.244 35.0318 52.9977 38.7807C50.9055 41.3433 48.2759 43.4151 45.2949 44.8497C43.7188 45.5101 42.0497 45.9217 40.3473 46.0698C39.1527 46.1953 37.9723 46.4315 36.8214 46.7754ZM17.5938 48.3C9.71776 43.4988 5.4313 34.4902 6.6738 25.3502C7.71085 16.9969 14.4277 10.4947 22.8102 9.7293C23.8827 9.66588 24.9589 9.70773 26.0232 9.85425C26.6784 9.9225 27.3347 9.98865 27.9898 10.016C30.0639 10.0418 32.1066 9.50861 33.9035 8.47245C35.6374 7.43014 37.5519 6.72344 39.5472 6.38925C44.1956 6.10419 48.7025 8.04658 51.6873 11.6214C55.0334 15.3555 56.7614 20.2646 56.4921 25.2714C56.1303 29.7737 54.3369 34.0419 51.3744 37.4514C49.479 39.7754 47.0959 41.6544 44.394 42.9555C43.0104 43.5197 41.5488 43.8695 40.0596 43.9929C38.7348 44.1351 37.4264 44.4016 36.1515 44.7888C34.6716 45.3676 33.3042 46.2005 32.1111 47.25C31.6355 47.6248 31.1808 47.9756 30.7135 48.3H17.5938ZM60.9 7.34055V3.15C60.9 2.5701 60.4299 2.1 59.85 2.1H56.1414C57.9658 3.61476 59.5677 5.37894 60.9 7.34055ZM3.15 2.1H9.7314C6.71138 4.18641 4.12057 6.83389 2.1 9.89835V3.15C2.1 2.5701 2.5701 2.1 3.15 2.1ZM59.85 60.9C60.4299 60.9 60.9 60.4299 60.9 59.85V50.4H2.1V59.85C2.1 60.4299 2.5701 60.9 3.15 60.9H59.85Z" fill="#4236AF"/>
<path d="M28.4753 52.1111H11.1913C10.5947 52.1111 10.1111 52.6334 10.1111 53.2778C10.1111 53.9221 10.5947 54.4444 11.1913 54.4444H28.4753C29.0719 54.4444 29.5555 53.9221 29.5555 53.2778C29.5555 52.6334 29.0719 52.1111 28.4753 52.1111Z" fill="#4236AF"/>
<path d="M5.63885 54.4444H7.58329C8.12024 54.4444 8.55551 53.9221 8.55551 53.2778C8.55551 52.6334 8.12024 52.1111 7.58329 52.1111H5.63885C5.1019 52.1111 4.66663 52.6334 4.66663 53.2778C4.66663 53.9221 5.1019 54.4444 5.63885 54.4444Z" fill="#4236AF"/>
<path d="M22.2531 56.7778H4.96916C4.37256 56.7778 3.88892 57.3001 3.88892 57.9444C3.88892 58.5888 4.37256 59.1111 4.96916 59.1111H22.2531C22.8497 59.1111 23.3334 58.5888 23.3334 57.9444C23.3334 57.3001 22.8497 56.7778 22.2531 56.7778Z" fill="#4236AF"/>
<path d="M28.5833 56.7778H26.6388C26.1019 56.7778 25.6666 57.3001 25.6666 57.9444C25.6666 58.5888 26.1019 59.1111 26.6388 59.1111H28.5833C29.1202 59.1111 29.5555 58.5888 29.5555 57.9444C29.5555 57.3001 29.1202 56.7778 28.5833 56.7778Z" fill="#4236AF"/>
<path d="M34.4815 54.4444H51.0741C51.6468 54.4444 52.1111 53.9221 52.1111 53.2778C52.1111 52.6334 51.6468 52.1111 51.0741 52.1111H34.4815C33.9088 52.1111 33.4445 52.6334 33.4445 53.2778C33.4445 53.9221 33.9088 54.4444 34.4815 54.4444Z" fill="#4236AF"/>
<path d="M58.1388 52.1111H56.1944C55.6574 52.1111 55.2222 52.6334 55.2222 53.2778C55.2222 53.9221 55.6574 54.4444 56.1944 54.4444H58.1388C58.6758 54.4444 59.1111 53.9221 59.1111 53.2778C59.1111 52.6334 58.6758 52.1111 58.1388 52.1111Z" fill="#4236AF"/>
<path d="M58.0308 56.7778H40.7469C40.1503 56.7778 39.6666 57.3001 39.6666 57.9444C39.6666 58.5888 40.1503 59.1111 40.7469 59.1111H58.0308C58.6274 59.1111 59.1111 58.5888 59.1111 57.9444C59.1111 57.3001 58.6274 56.7778 58.0308 56.7778Z" fill="#4236AF"/>
<path d="M36.3611 56.7778H34.4167C33.8797 56.7778 33.4445 57.3001 33.4445 57.9444C33.4445 58.5888 33.8797 59.1111 34.4167 59.1111H36.3611C36.8981 59.1111 37.3333 58.5888 37.3333 57.9444C37.3333 57.3001 36.8981 56.7778 36.3611 56.7778Z" fill="#4236AF"/>
</svg>
