<svg width="45" height="62" viewBox="0 0 45 62" fill="none" xmlns="http://www.w3.org/2000/svg">
<path fill-rule="evenodd" clip-rule="evenodd" d="M38 52C38 55.31 35.76 58 33 58C30.24 58 28 55.31 28 52C28 48.69 30.24 46 33 46C35.76 46 38 48.69 38 52ZM36 52C36 49.79 34.65 48 33 48C31.35 48 30 49.79 30 52C30 54.21 31.35 56 33 56C34.65 56 36 54.21 36 52Z" fill="#4236AF"/>
<path fill-rule="evenodd" clip-rule="evenodd" d="M7 52C7 48.69 9.24 46 12 46C14.76 46 17 48.69 17 52C17 55.31 14.76 58 12 58C9.24 58 7 55.31 7 52ZM9 52C9 54.21 10.35 56 12 56C13.65 56 15 54.21 15 52C15 49.79 13.65 48 12 48C10.35 48 9 49.79 9 52Z" fill="#4236AF"/>
<circle cx="23" cy="38" r="1" fill="#4236AF"/>
<path fill-rule="evenodd" clip-rule="evenodd" d="M4.09091 28.9333H9.37841L17.1818 38.4607L14.5636 41.664C8.74432 39.9797 3.06818 44.9293 3.06818 51.6667C3.06818 57.3603 7.15909 62 12.2727 62C18.9716 62 23.5227 54.157 20.5977 47.2543L22.5 44.9397L24.4023 47.2543C21.4773 54.157 26.0284 62 32.7273 62C37.8409 62 41.9318 57.3603 41.9318 51.6667C41.9318 44.9087 36.2352 39.9797 30.4364 41.664L27.8182 38.4607L35.6216 28.9333H40.9091C43.1684 28.9333 45 27.0828 45 24.8V4.13333C45 1.85056 43.1684 0 40.9091 0H4.09091C1.83156 0 0 1.85056 0 4.13333V24.8C0 27.0828 1.83156 28.9333 4.09091 28.9333ZM4.09091 26.8667C2.96124 26.8667 2.04545 25.9414 2.04545 24.8V22.7333H6.13636C6.13133 24.256 6.68104 25.7272 7.68068 26.8667H4.09091ZM42.9545 15.5H2.04545V20.6667H6.50455C7.03976 19.2951 7.98317 18.1253 9.20455 17.3187C9.63091 16.9866 10.2391 17.0453 10.5955 17.453L13.2341 20.6667H42.9545V15.5ZM9.13295 25.389C7.69343 23.631 7.93605 21.027 9.675 19.5713L21.1705 33.5937L18.5114 36.8383L9.13295 25.389ZM20.0045 28.9333L22.5 31.9713L24.9852 28.9333H20.0045ZM29.3114 43.524C29.593 43.8641 30.0581 43.9847 30.467 43.8237C35.1 42.036 39.8864 46.0453 39.8864 51.6667C39.8864 56.2237 36.675 59.9333 32.7273 59.9333C27.2864 59.9333 23.7784 53.134 26.5193 47.5333C26.6966 47.1674 26.6446 46.7303 26.3864 46.4173L23.8295 43.3173L26.4886 40.0727L29.3114 43.524ZM18.4807 47.5333C18.3122 47.1729 18.3639 46.7466 18.6136 46.438L32.9318 28.9333H27.6136L15.6886 43.524C15.407 43.8641 14.9419 43.9847 14.533 43.8237C9.92045 42.036 5.11364 46.0247 5.11364 51.6667C5.11364 56.2237 8.325 59.9333 12.2727 59.9333C17.7239 59.9333 21.2114 53.0927 18.4807 47.5333ZM40.9091 26.8667H18.317L14.9216 22.7333H42.9545V24.8C42.9545 25.9414 42.0388 26.8667 40.9091 26.8667ZM40.9091 2.06667H4.09091C2.96124 2.06667 2.04545 2.99194 2.04545 4.13333V13.4333H42.9545V4.13333C42.9545 2.99194 42.0388 2.06667 40.9091 2.06667Z" fill="#4236AF"/>
<path fill-rule="evenodd" clip-rule="evenodd" d="M34 9.93992C34.9916 10.9612 36.5023 11.2787 37.8201 10.7428C39.1379 10.2069 40 8.92449 40 7.5C40 6.07551 39.1379 4.79314 37.8201 4.25723C36.5023 3.72133 34.9916 4.03882 34 5.06008C33.0084 4.03882 31.4977 3.72133 30.1799 4.25723C28.8621 4.79314 28 6.07551 28 7.5C28 8.92449 28.8621 10.2069 30.1799 10.7428C31.4977 11.2787 33.0084 10.9612 34 9.93992ZM36.4961 6.00005C37.3233 6.00005 37.9938 6.6716 37.9938 7.5C37.9938 8.3284 37.3233 8.99995 36.4961 8.99995C35.669 8.99995 34.9985 8.3284 34.9985 7.5C34.9985 6.6716 35.669 6.00005 36.4961 6.00005ZM33.0015 7.5C33.0015 6.6716 32.331 6.00005 31.5039 6.00005C30.6767 6.00005 30.0062 6.6716 30.0062 7.5C30.0062 8.3284 30.6767 8.99995 31.5039 8.99995C32.331 8.99995 33.0015 8.3284 33.0015 7.5Z" fill="#4236AF"/>
</svg>
