<svg width="63" height="63" viewBox="0 0 63 63" fill="none" xmlns="http://www.w3.org/2000/svg">
<path fill-rule="evenodd" clip-rule="evenodd" d="M45.6425 36.4004C50.1484 34.5181 55.5476 35.4067 59.2087 39.0679C61.5514 41.4105 62.8416 44.5253 62.8416 47.8384C62.8416 51.1515 61.5514 54.2662 59.2087 56.609C56.7906 59.0269 53.6143 60.236 50.4381 60.236C48.8038 60.236 47.1698 59.9151 45.6388 59.2749V59.5295C45.6388 59.5364 45.6387 59.5433 45.6386 59.5502C45.6385 59.5575 45.6383 59.5648 45.638 59.5722C45.6379 59.576 45.6377 59.5798 45.6375 59.5837C45.6372 59.5903 45.6369 59.5969 45.6364 59.6035C45.5233 61.4765 43.9648 62.9435 42.0883 62.9435H3.65584C1.69621 62.9435 0.101929 61.3492 0.101929 59.3895V3.55404C0.101929 1.59428 1.69633 0 3.65596 0H30.9498C31.4094 0 31.8636 0.097386 32.282 0.277789C32.3126 0.289702 32.3425 0.303088 32.3718 0.317456C32.3844 0.323254 32.3969 0.329378 32.4094 0.335496L32.4096 0.335579L32.418 0.339684L32.4202 0.340789C32.755 0.50314 33.0636 0.719649 33.3287 0.984667L44.6577 12.315C45.2927 12.95 45.6425 13.7944 45.6425 14.6926V36.4004ZM33.3342 12.5802H41.4496L33.0625 4.19226V12.3085C33.0625 12.4583 33.1844 12.5802 33.3342 12.5802ZM43.1826 59.4856C43.1331 60.0498 42.6581 60.4874 42.0884 60.4874H3.65596C3.05053 60.4874 2.55819 59.9949 2.55819 59.3895V3.55404C2.55819 2.9486 3.05065 2.45614 3.65596 2.45614H30.6065V12.3085C30.6065 13.8126 31.8302 15.0364 33.3344 15.0364H43.1864V37.7753C42.6544 38.1591 42.146 38.5894 41.6676 39.0679C39.3249 41.4107 38.0347 44.5254 38.0347 47.8385C38.0347 51.1516 39.3249 54.2663 41.6676 56.6091C42.1449 57.0865 42.6521 57.5159 43.1828 57.899V59.4856H43.1826ZM43.4042 54.8723C47.2827 58.7508 53.5933 58.7508 57.4718 54.8723C59.3507 52.9934 60.3853 50.4954 60.3853 47.8385C60.3853 45.1816 59.3505 42.6835 57.4717 40.8047C55.5325 38.8655 52.9852 37.8958 50.4379 37.8958C47.8907 37.8958 45.3434 38.8655 43.4042 40.8047C41.5253 42.6834 40.4906 45.1816 40.4906 47.8385C40.4906 50.4954 41.5253 52.9934 43.4042 54.8723Z" fill="#4236AF"/>
<path d="M8.75576 19.573H25.8767C26.5548 19.573 27.1047 19.0232 27.1047 18.3449C27.1047 17.6666 26.5548 17.1168 25.8767 17.1168H8.75576C8.07762 17.1168 7.52769 17.6666 7.52769 18.3449C7.52769 19.0232 8.0775 19.573 8.75576 19.573Z" fill="#4236AF"/>
<path d="M30.1468 39.212H8.75576C8.07762 39.212 7.52769 39.7618 7.52769 40.4401C7.52769 41.1184 8.07762 41.6682 8.75576 41.6682H30.1469C30.825 41.6682 31.375 41.1184 31.375 40.4401C31.375 39.7618 30.825 39.212 30.1468 39.212Z" fill="#4236AF"/>
<path d="M30.1468 46.5771H8.75576C8.07762 46.5771 7.52769 47.127 7.52769 47.8052C7.52769 48.4835 8.07762 49.0333 8.75576 49.0333H30.1469C30.825 49.0333 31.375 48.4835 31.375 47.8052C31.375 47.127 30.825 46.5771 30.1468 46.5771Z" fill="#4236AF"/>
<path d="M37.0521 31.847H8.75576C8.07762 31.847 7.52769 32.3969 7.52769 33.0751C7.52769 33.7534 8.07762 34.3032 8.75576 34.3032H37.0521C37.7302 34.3032 38.2802 33.7534 38.2802 33.0751C38.2802 32.3969 37.7302 31.847 37.0521 31.847Z" fill="#4236AF"/>
<path d="M8.63296 27.0175H30.7889C31.4671 27.0175 32.017 26.4677 32.017 25.7895C32.017 25.1112 31.4671 24.5614 30.7889 24.5614H8.63296C7.95482 24.5614 7.40489 25.1112 7.40489 25.7895C7.40489 26.4677 7.9547 27.0175 8.63296 27.0175Z" fill="#4236AF"/>
<circle cx="36.9007" cy="25.7895" r="1.22868" fill="#4236AF"/>
<path d="M54.7808 43.4958C54.3012 43.0162 53.5238 43.0162 53.0439 43.4958L50.4379 46.1016L47.8731 43.5368C47.3936 43.0572 46.6159 43.0572 46.1363 43.5368C45.6567 44.0164 45.6567 44.794 46.1363 45.2735L48.7011 47.8384L46.0951 50.4443C45.6156 50.9239 45.6156 51.7015 46.0951 52.1811C46.335 52.4209 46.6492 52.5408 46.9635 52.5408C47.2777 52.5408 47.592 52.4208 47.8319 52.1811L50.4378 49.5752L53.0026 52.14C53.2425 52.3799 53.5567 52.4997 53.871 52.4997C54.1853 52.4997 54.4997 52.3798 54.7394 52.14C55.2189 51.6605 55.2189 50.8829 54.7394 50.4033L52.1746 47.8385L54.7805 45.2326C55.2604 44.753 55.2604 43.9753 54.7808 43.4958Z" fill="#4236AF"/>
</svg>
