<svg width="63" height="63" viewBox="0 0 63 63" fill="none" xmlns="http://www.w3.org/2000/svg">
<path fill-rule="evenodd" clip-rule="evenodd" d="M46.7463 21.9968L58.1667 21.996C60.8318 21.996 63.0002 24.1619 63 26.8242V60.5488C63 61.9004 61.8992 63 60.5461 63H41.5481C40.195 63 39.0942 61.9004 39.0942 60.5488V45.4949H28.2882C27.0218 45.4949 25.8301 45.0123 24.9196 44.1275C23.9761 43.2105 23.4566 41.9815 23.4566 40.6668V32.5305H12.6505C11.3841 32.5305 10.1925 32.0478 9.282 31.1631C8.3385 30.246 7.81894 29.017 7.81894 27.7023V22.34H1.62877C0.730727 22.34 0 21.6102 0 20.713V4.82813C0 3.51338 0.519554 2.28441 1.46318 1.36755C2.36701 0.489077 3.54941 0.00873792 4.80474 0.00147683C4.81435 0.00110762 26.2751 0 26.2751 0C28.9403 0 31.1086 2.1659 31.1087 4.82813V10.4609H41.9129C44.5779 10.4609 46.7463 12.6268 46.7463 15.289V21.9968ZM9.66701 13.3507V27.7023C9.66701 28.5143 9.98796 29.2735 10.5706 29.8397C11.1531 30.4059 11.9215 30.7042 12.7368 30.6831C14.3363 30.6393 15.6376 29.2656 15.6376 27.6209V21.8614V15.289C15.6376 13.9743 16.1572 12.7452 17.1007 11.8282C18.0054 10.949 19.1889 10.4674 20.4452 10.4621C20.4538 10.462 29.2603 10.4609 29.2603 10.4609V4.82813C29.2603 3.1838 27.921 1.84604 26.2749 1.84604H8.59575C9.26463 2.69017 9.66689 3.75829 9.66689 4.90935V9.41701C9.66689 9.92676 9.25317 10.34 8.74285 10.34C8.23254 10.34 7.81882 9.92676 7.81882 9.41701V4.90935C7.81882 3.26466 6.51753 1.89096 4.91796 1.84715C4.10346 1.82413 3.33429 2.1243 2.75178 2.69054C2.16902 3.2569 1.84807 4.01612 1.84807 4.82813V20.494H7.81894V13.3507C7.81894 12.8409 8.23266 12.4277 8.74298 12.4277C9.25329 12.4277 9.66701 12.8409 9.66701 13.3507ZM25.3048 40.6666V24.6889C25.3048 24.1792 24.8911 23.7659 24.3807 23.7659C23.8704 23.7659 23.4567 24.1792 23.4567 24.6889V30.6844H16.4148C17.0837 29.8402 17.486 28.772 17.486 27.6209V21.8614V15.289C17.486 14.477 17.8069 13.7178 18.3898 13.1513C18.9723 12.5852 19.741 12.2861 20.556 12.308C22.1555 12.3518 23.4568 13.7255 23.4568 15.3702V20.7553C23.4568 21.265 23.8705 21.6783 24.3809 21.6783C24.8912 21.6783 25.3049 21.265 25.3049 20.7553V15.3702C25.3049 14.2192 24.9026 13.1511 24.2339 12.3069H41.913C43.5592 12.3069 44.8984 13.6447 44.8984 15.289V21.9969L36.1006 21.9974H36.0986C35.6161 21.9984 35.1398 22.0704 34.6827 22.2113C32.6449 22.8396 31.2758 24.6933 31.2758 26.8243V40.5854C31.2758 42.2301 29.9744 43.6038 28.3749 43.6476C27.5589 43.6696 26.7912 43.3703 26.2087 42.8042C25.6257 42.2379 25.3048 41.4786 25.3048 40.6666ZM60.5464 61.1538C60.8804 61.1538 61.1522 60.8823 61.1522 60.5487H61.1521V26.8242C61.1521 25.1798 59.8128 23.8421 58.1667 23.8421C58.0053 23.8421 46.0702 23.8423 39.8721 23.8428C40.5406 24.6868 40.9425 25.7548 40.9425 26.9054V37.1115C40.9425 37.6213 40.5289 38.0345 40.0185 38.0345C39.5081 38.0345 39.0945 37.6213 39.0945 37.1115V26.9054C39.0945 25.2608 37.7931 23.887 36.1936 23.8432C36.1854 23.8429 36.1546 23.8431 36.13 23.8432C36.1185 23.8433 36.1084 23.8433 36.1024 23.8433C35.8035 23.8439 35.5092 23.8882 35.2277 23.9751C33.9691 24.363 33.1237 25.5081 33.1237 26.8242V40.5854C33.1237 41.7365 32.7215 42.8047 32.0526 43.6488H39.0945V41.0452C39.0945 40.5354 39.5081 40.1222 40.0185 40.1222C40.5289 40.1222 40.9425 40.5354 40.9425 41.0452V60.5487C40.9425 60.8823 41.2143 61.1538 41.5483 61.1538H60.5464Z" fill="#4236AF"/>
<path fill-rule="evenodd" clip-rule="evenodd" d="M56.7663 50.6325C57.1382 50.8584 57.4017 51.2194 57.5088 51.6487L58.2239 54.5165C58.331 54.9457 58.2686 55.3921 58.0483 55.7733C57.8281 56.1546 57.4763 56.425 57.0577 56.5348L47.6211 59.0101C47.4873 59.0452 47.352 59.0625 47.2175 59.0625C46.9309 59.0625 46.6486 58.9837 46.3957 58.83C46.0239 58.6041 45.7603 58.2431 45.6533 57.8139L44.9381 54.946C44.7172 54.06 45.2402 53.1546 46.1042 52.9278L55.541 50.4525C55.9597 50.3425 56.3947 50.4067 56.7663 50.6325ZM46.7727 54.6974L47.3788 57.1286L56.3895 54.7651L55.7833 52.3339L46.7727 54.6974Z" fill="#4236AF"/>
<path d="M57.3626 28.35H44.2249C43.7209 28.35 43.3125 28.7026 43.3125 29.1375C43.3125 29.5724 43.7209 29.925 44.2249 29.925H57.3626C57.8666 29.925 58.275 29.5724 58.275 29.1375C58.275 28.7026 57.8665 28.35 57.3626 28.35Z" fill="#4236AF"/>
<path d="M41.6126 18.1125C42.1166 18.1125 42.525 17.7599 42.525 17.325C42.525 16.8901 42.1166 16.5375 41.6126 16.5375H28.4749C27.971 16.5375 27.5625 16.8901 27.5625 17.325C27.5625 17.7599 27.971 18.1125 28.4749 18.1125H41.6126Z" fill="#4236AF"/>
<path d="M25.8626 6.30001C26.3665 6.30001 26.775 5.94742 26.775 5.51251C26.775 5.0776 26.3665 4.72501 25.8626 4.72501H12.7249C12.221 4.72501 11.8125 5.0776 11.8125 5.51251C11.8125 5.94742 12.221 6.30001 12.7249 6.30001H25.8626Z" fill="#4236AF"/>
<path d="M57.3626 32.2875H44.2249C43.7209 32.2875 43.3125 32.6401 43.3125 33.075C43.3125 33.5099 43.7209 33.8625 44.2249 33.8625H57.3626C57.8666 33.8625 58.275 33.5099 58.275 33.075C58.275 32.6401 57.8665 32.2875 57.3626 32.2875Z" fill="#4236AF"/>
<path d="M57.3626 37.0125H44.2249C43.7209 37.0125 43.3125 37.3651 43.3125 37.8C43.3125 38.2349 43.7209 38.5875 44.2249 38.5875H57.3626C57.8666 38.5875 58.275 38.2349 58.275 37.8C58.275 37.3651 57.8665 37.0125 57.3626 37.0125Z" fill="#4236AF"/>
<path d="M57.3626 41.7375H44.2249C43.7209 41.7375 43.3125 42.0901 43.3125 42.525C43.3125 42.9599 43.7209 43.3125 44.2249 43.3125H57.3626C57.8666 43.3125 58.275 42.9599 58.275 42.525C58.275 42.0901 57.8665 41.7375 57.3626 41.7375Z" fill="#4236AF"/>
<path d="M57.3626 45.675H44.2249C43.7209 45.675 43.3125 46.0276 43.3125 46.4625C43.3125 46.8974 43.7209 47.25 44.2249 47.25H57.3626C57.8666 47.25 58.275 46.8974 58.275 46.4625C58.275 46.0276 57.8665 45.675 57.3626 45.675Z" fill="#4236AF"/>
</svg>
