<svg width="77" height="63" viewBox="0 0 77 63" fill="none" xmlns="http://www.w3.org/2000/svg">
<path fill-rule="evenodd" clip-rule="evenodd" d="M35.9255 12.189C35.9255 12.8976 36.5 13.4721 37.2086 13.4721C37.9172 13.4721 38.4917 12.8976 38.4917 12.189C38.3678 9.31291 36.2099 6.93442 33.3594 6.53202V6.41526C33.3594 5.70665 32.785 5.1322 32.0764 5.1322C31.3678 5.1322 30.7933 5.70665 30.7933 6.41526V6.53202C27.9428 6.93442 25.785 9.31291 25.6611 12.189C25.785 15.0651 27.9428 17.4436 30.7933 17.846V24.1804C29.3655 23.8565 28.3211 22.6315 28.2272 21.1704C28.2272 20.4618 27.6528 19.8873 26.9442 19.8873C26.2355 19.8873 25.6611 20.4618 25.6611 21.1704C25.785 24.0465 27.9428 26.425 30.7933 26.8274V26.9441C30.7933 27.6527 31.3678 28.2272 32.0764 28.2272C32.785 28.2272 33.3594 27.6527 33.3594 26.9441V26.8274C36.2099 26.425 38.3678 24.0465 38.4917 21.1704C38.3678 18.2943 36.2099 15.9158 33.3594 15.5134V9.17896C34.7873 9.50288 35.8316 10.7279 35.9255 12.189ZM28.2272 12.189C28.3211 10.7279 29.3655 9.50288 30.7933 9.17896V15.1991C29.3655 14.8751 28.3211 13.6501 28.2272 12.189ZM33.3594 24.1804C34.7873 23.8565 35.8316 22.6315 35.9255 21.1704C35.8316 19.7093 34.7873 18.4843 33.3594 18.1603V24.1804Z" fill="#4236AF"/>
<path fill-rule="evenodd" clip-rule="evenodd" d="M5.13222 33.3594H2.56611C1.14889 33.3594 0 32.2105 0 30.7933V2.56611C0 1.14889 1.14889 0 2.56611 0H7.69833C8.40694 0 8.98138 0.574443 8.98138 1.28305C8.98138 1.99167 8.40694 2.56611 7.69833 2.56611H2.56611V30.7933H23.9084C19.3201 27.5677 16.616 22.2881 16.6797 16.6797C16.616 11.0713 19.3201 5.79177 23.9084 2.56611H14.1136C13.405 2.56611 12.8305 1.99167 12.8305 1.28305C12.8305 0.574443 13.405 0 14.1136 0H61.5866C63.0039 0 64.1527 1.14889 64.1527 2.56611V19.2458C64.1527 19.9544 63.5783 20.5289 62.8697 20.5289C62.1611 20.5289 61.5866 19.9544 61.5866 19.2458V2.56611H40.2443C44.8327 5.79177 47.5368 11.0713 47.473 16.6797C47.473 25.8767 40.5663 33.3594 32.0764 33.3594H7.69833V37.2086H39.7747C40.4833 37.2086 41.0578 37.783 41.0578 38.4916C41.0578 39.2003 40.4833 39.7747 39.7747 39.7747H12.8305V43.6239H39.7747C40.4833 43.6239 41.0578 44.1983 41.0578 44.9069C41.0578 45.6155 40.4833 46.19 39.7747 46.19H12.8305C11.4133 46.19 10.2644 45.0411 10.2644 43.6239V39.7747H7.69833C6.28111 39.7747 5.13222 38.6258 5.13222 37.2086V33.3594ZM32.0764 2.56611C25.0016 2.56611 19.2458 8.89799 19.2458 16.6797C19.2458 24.4614 25.0016 30.7933 32.0764 30.7933C39.1511 30.7933 44.9069 24.4614 44.9069 16.6797C44.9069 8.89799 39.1511 2.56611 32.0764 2.56611Z" fill="#4236AF"/>
<path d="M11.5475 5.1322H6.41529C5.70668 5.1322 5.13223 5.70665 5.13223 6.41526V11.5475C5.13223 12.2561 5.70668 12.8305 6.41529 12.8305C7.1239 12.8305 7.69834 12.2561 7.69834 11.5475V7.69831H11.5475C12.2561 7.69831 12.8306 7.12387 12.8306 6.41526C12.8306 5.70665 12.2561 5.1322 11.5475 5.1322Z" fill="#4236AF"/>
<path d="M57.7375 12.8305C58.4461 12.8305 59.0205 12.2561 59.0205 11.5475V6.41526C59.0205 5.70665 58.4461 5.1322 57.7375 5.1322H52.6053C51.8966 5.1322 51.3222 5.70665 51.3222 6.41526C51.3222 7.12387 51.8966 7.69831 52.6053 7.69831H56.4544V11.5475C56.4544 12.2561 57.0289 12.8305 57.7375 12.8305Z" fill="#4236AF"/>
<path d="M6.41529 20.5289C5.70668 20.5289 5.13223 21.1033 5.13223 21.8119V26.9441C5.13223 27.6528 5.70668 28.2272 6.41529 28.2272H11.5475C12.2561 28.2272 12.8306 27.6528 12.8306 26.9441C12.8306 26.2355 12.2561 25.6611 11.5475 25.6611H7.69834V21.8119C7.69834 21.1033 7.1239 20.5289 6.41529 20.5289Z" fill="#4236AF"/>
<path fill-rule="evenodd" clip-rule="evenodd" d="M71.8511 35.9255H70.568V30.7933C70.5638 26.5434 67.1196 23.0992 62.8697 23.095H57.7375C53.4876 23.0992 50.0434 26.5434 50.0391 30.7933V35.9255H48.7561C45.9216 35.9255 43.6239 38.2233 43.6239 41.0577V57.7375C43.6239 60.5719 45.9216 62.8697 48.7561 62.8697H71.8511C74.6855 62.8697 76.9833 60.5719 76.9833 57.7375V41.0577C76.9833 38.2233 74.6855 35.9255 71.8511 35.9255ZM52.6053 30.7933C52.6053 27.9589 54.903 25.6611 57.7375 25.6611H62.8697C65.7041 25.6611 68.0019 27.9589 68.0019 30.7933V35.9255H52.6053V30.7933ZM71.8511 60.3036C73.2683 60.3036 74.4172 59.1547 74.4172 57.7375V41.0577C74.4172 39.6405 73.2683 38.4916 71.8511 38.4916H48.7561C47.3389 38.4916 46.19 39.6405 46.19 41.0577V57.7375C46.19 59.1547 47.3389 60.3036 48.7561 60.3036H71.8511Z" fill="#4236AF"/>
<path fill-rule="evenodd" clip-rule="evenodd" d="M59.8665 42.3439C62.5278 42.1164 64.9187 43.9682 65.364 46.6018C65.6167 48.0591 65.2265 49.5545 64.2939 50.7025L64.9662 53.2301C65.1706 54.0003 65.0056 54.8218 64.5196 55.4534C64.0335 56.0849 63.2817 56.4548 62.4848 56.4544H58.1224C57.3258 56.4547 56.5742 56.085 56.0883 55.4537C55.6023 54.8225 55.437 54.0014 55.641 53.2314L56.3133 50.7012C55.5714 49.7893 55.1679 48.6487 55.1714 47.473C55.1633 44.802 57.2052 42.5714 59.8665 42.3439ZM62.4848 53.8883L61.629 50.6627C61.5037 50.1896 61.6585 49.6864 62.028 49.3655C62.688 48.7761 62.9934 47.8854 62.8338 47.015C62.6439 45.977 61.84 45.1599 60.8053 44.9531C60.6398 44.9227 60.4719 44.9072 60.3036 44.9069C59.7022 44.9035 59.1191 45.114 58.6587 45.501C58.0743 45.9891 57.7368 46.7116 57.7375 47.473C57.7313 48.1965 58.0387 48.8872 58.5805 49.3668C58.949 49.6878 59.1032 50.1902 58.9782 50.6627L58.1224 53.8883H62.4848Z" fill="#4236AF"/>
</svg>
