<svg width="58" height="63" viewBox="0 0 58 63" fill="none" xmlns="http://www.w3.org/2000/svg">
<path fill-rule="evenodd" clip-rule="evenodd" d="M57.0619 33.8719H56.2037V28.4335V28.2959C56.2037 27.9154 55.9699 27.5733 55.6133 27.4322L39.7364 21.1504L39.6416 20.3412H54.2023V22.4939H53.2191C52.7009 22.4939 52.281 22.9103 52.281 23.4239C52.281 23.9374 52.7009 24.3538 53.2191 24.3538H57.0619C57.5801 24.3538 58 23.9374 58 23.4239C58 22.9103 57.5801 22.4939 57.0619 22.4939H56.0786V16.0927C56.0786 15.7324 55.8687 15.4045 55.5397 15.2512L37.7295 6.94542L29.6014 0.216208C29.2533 -0.0720694 28.747 -0.0720694 28.3988 0.216208L20.2707 6.94542L2.46026 15.2512C2.13143 15.4045 1.92143 15.7324 1.92143 16.0927V22.4939H0.938074C0.420007 22.4939 0 22.9103 0 23.4239C0 23.9374 0.420007 24.3538 0.938074 24.3538H4.78093C5.29899 24.3538 5.719 23.9374 5.719 23.4239C5.719 22.9103 5.29899 22.4939 4.78093 22.4939H3.79757V20.3412H18.3584L18.2636 21.1504L2.38684 27.4322C2.03037 27.5733 1.79647 27.9154 1.79647 28.2959V33.8719H0.938199C0.420132 33.8719 0.000125077 34.2883 0.000125077 34.8018C0.000125077 35.3154 0.420132 35.7318 0.938199 35.7318H4.78105C5.29912 35.7318 5.71913 35.3154 5.71913 34.8018C5.71913 34.2883 5.29912 33.8719 4.78105 33.8719H3.67262V31.7973H17.0167L16.4352 36.7616C16.3754 37.2719 16.7441 37.7334 17.2588 37.7926C17.7735 37.8525 18.239 37.4862 18.2987 36.9763L21.6146 8.66603H36.3854L41.5075 52.3991H39.5525L34.752 11.4138C34.697 10.9449 34.2964 10.5911 33.8202 10.5911H33.5823H33.5813H24.1798C23.7035 10.5911 23.3029 10.9449 23.248 11.4138L18.4475 52.3988H16.4923L17.8158 41.0987C17.8756 40.5885 17.5068 40.127 16.9923 40.0677C16.4768 40.0081 16.0119 40.374 15.9523 40.8842L14.6036 52.3988H12.0508C9.6459 52.3988 7.68958 54.3383 7.68958 56.7221V62.0701C7.68958 62.5836 8.10959 63 8.62766 63H25.499C26.017 63 26.4371 62.5836 26.4371 62.0701C26.4371 61.5565 26.017 61.1401 25.499 61.1401H9.56573V56.7221C9.56573 55.3637 10.6805 54.2587 12.0508 54.2587H45.4927C46.8629 54.2587 47.9777 55.3638 47.9777 56.7221V61.1401H29.2513C28.7332 61.1401 28.3132 61.5565 28.3132 62.0701C28.3132 62.5836 28.7332 63 29.2513 63H48.9159C49.4341 63 49.854 62.5836 49.854 62.0701V56.7221C49.854 54.3382 47.8976 52.3988 45.4928 52.3988H43.3963L40.9833 31.7972H54.3274V33.8718H53.2191C52.7009 33.8718 52.281 34.2882 52.281 34.8017C52.281 35.3153 52.7009 35.7317 53.2191 35.7317H57.0619C57.5801 35.7317 58 35.3153 58 34.8017C58 34.2883 57.58 33.8719 57.0619 33.8719ZM34.2836 52.3988L30.4176 49.7406L36.8354 45.3278L37.6637 52.3988H34.2836ZM26.5518 52.3988H30.9918L28.7717 50.8722L26.5518 52.3988ZM24.9399 13.0947L27.5888 15.2974L24.3682 17.9755L24.9399 13.0947ZM35.2966 32.1896L30.181 36.7139L36.479 42.2839L35.2966 32.1896ZM28.7717 35.4677L23.3619 30.6833L28.7983 25.8754L34.2079 30.6598L28.7717 35.4677ZM34.0166 21.2605L30.2075 24.6292L34.897 28.7765L34.0166 21.2605ZM28.7983 23.383L24.9149 19.9485L29.0484 16.5113L32.924 19.7342L28.7983 23.383ZM30.508 15.2975L33.6213 17.8863L33.0686 13.1682L30.508 15.2975ZM29.0484 14.0837L27.085 12.451H31.0119L29.0484 14.0837ZM23.1498 28.3785L27.3891 24.6292L23.9457 21.5837L23.1498 28.3785ZM22.6605 32.5554L27.3626 36.7139L21.5738 41.8335L22.6605 32.5554ZM35.5458 43.9511L28.7717 37.9601L21.9977 43.951L28.7717 48.6088L35.5458 43.9511ZM21.1306 45.6183L27.1259 49.7406L23.26 52.3988H20.3364L21.1306 45.6183ZM39.4239 18.4814H54.2023H54.2024V16.683L38.3472 9.28896L39.4239 18.4814ZM29 2.14153L34.6342 6.80605H23.3658L29 2.14153ZM3.7977 16.6829V18.4812H18.5764L19.653 9.28884L3.7977 16.6829ZM3.67262 29.9372V28.9259L18.0178 23.25L17.2345 29.9372H3.67262ZM39.9823 23.2502L40.7656 29.9373H54.3274V28.9259L39.9823 23.2502Z" fill="#4236AF"/>
</svg>
