<svg width="160" height="160" viewBox="0 0 160 160" fill="none" xmlns="http://www.w3.org/2000/svg">
<path opacity="0.263811" fill-rule="evenodd" clip-rule="evenodd" d="M2.5841 76.1268L153.16 0.528105C156.569 -1.22815 160.551 1.64779 159.937 5.44373C159.929 5.49404 159.92 5.54404 159.91 5.59404L131.165 156.191C130.875 157.705 129.861 158.98 128.451 159.601C127.041 160.223 125.416 160.112 124.103 159.304L70.0384 126.034L45.9348 158.127C44.7235 159.74 42.6169 160.397 40.7031 159.759C38.7896 159.12 37.4993 157.33 37.4993 155.312V106.011L2.23097 84.3075C0.782813 83.4168 -0.068769 81.8118 0.00435769 80.1134C0.0774843 78.4153 1.06469 76.8896 2.5841 76.1268ZM15 80.848L42.5627 98L125 25L15 80.848ZM47 142V106.398L125 38C123.512 39.9844 67.2728 114.97 51.2044 136.394L47 142ZM76 118.766L123.389 148L147 24L76 118.766Z" fill="white"/>
</svg>
