<svg width="98" height="33" viewBox="0 0 98 33" fill="none" xmlns="http://www.w3.org/2000/svg">
<path d="M0.944 32L1.252 30.328C1.80933 30.0347 2.42533 29.7853 3.1 29.58C3.77467 29.3453 4.464 29.1693 5.168 29.052L10.448 4.148C9.77333 4.00133 9.14267 3.82533 8.556 3.62C7.99867 3.38533 7.51467 3.136 7.104 2.872L7.456 1.2H12.56C13.0587 1.2 13.6747 1.18533 14.408 1.156C15.1707 1.12667 15.948 1.09733 16.74 1.068C17.5613 1.00933 18.3387 0.965332 19.072 0.935999C19.8347 0.877333 20.48 0.848 21.008 0.848C23.472 0.848 25.5547 1.112 27.256 1.64C28.9867 2.168 30.38 2.916 31.436 3.884C32.5213 4.852 33.2987 6.01067 33.768 7.36C34.2667 8.68 34.516 10.1467 34.516 11.76C34.516 13.432 34.3693 15.104 34.076 16.776C33.7827 18.4187 33.2987 20.0027 32.624 21.528C31.9493 23.0533 31.084 24.476 30.028 25.796C28.972 27.116 27.6667 28.2747 26.112 29.272C24.5867 30.24 22.812 31.0027 20.788 31.56C18.764 32.1173 16.4467 32.396 13.836 32.396C13.4547 32.396 12.9267 32.3667 12.252 32.308C11.6067 32.2787 10.9027 32.2347 10.14 32.176C9.37733 32.1467 8.61467 32.1027 7.852 32.044C7.11867 32.0147 6.47333 32 5.916 32H0.944ZM19.996 3.708C19.468 3.708 18.9693 3.72267 18.5 3.752C18.0307 3.78133 17.5907 3.82533 17.18 3.884L11.768 29.36C12.208 29.4187 12.7067 29.4627 13.264 29.492C13.8213 29.5213 14.2613 29.536 14.584 29.536C16.96 29.536 18.9547 28.9787 20.568 27.864C22.1813 26.72 23.4867 25.268 24.484 23.508C25.4813 21.7187 26.1853 19.7387 26.596 17.568C27.036 15.3973 27.256 13.2707 27.256 11.188C27.256 9.98533 27.1387 8.91467 26.904 7.976C26.6693 7.03733 26.2733 6.26 25.716 5.644C25.1587 4.99866 24.4107 4.51466 23.472 4.192C22.5333 3.86933 21.3747 3.708 19.996 3.708ZM55.3005 26.896C54.5378 26.104 53.7752 25.1947 53.0125 24.168C52.2792 23.1413 51.5898 22.1 50.9445 21.044C50.3285 19.988 49.7712 18.9613 49.2725 17.964C48.7738 16.9667 48.3925 16.116 48.1285 15.412C46.8965 16.4973 45.9285 17.7147 45.2245 19.064C44.5205 20.4133 44.1538 21.8653 44.1245 23.42C44.1245 24.212 44.2418 24.96 44.4765 25.664C44.7405 26.368 45.1072 26.984 45.5765 27.512C46.0458 28.04 46.6325 28.4653 47.3365 28.788C48.0405 29.0813 48.8472 29.228 49.7565 29.228C50.6365 29.228 51.5752 29.052 52.5725 28.7C53.5698 28.3187 54.4792 27.7173 55.3005 26.896ZM50.5485 7.228C50.5485 8.13733 50.7098 9.01733 51.0325 9.868C51.3552 10.6893 51.7658 11.496 52.2645 12.288C53.4085 11.5253 54.3765 10.6013 55.1685 9.516C55.9898 8.40133 56.4005 7.21333 56.4005 5.952C56.4005 5.18933 56.2392 4.52933 55.9165 3.972C55.5938 3.38533 55.0072 3.092 54.1565 3.092C53.1298 3.092 52.2645 3.488 51.5605 4.28C50.8858 5.072 50.5485 6.05467 50.5485 7.228ZM60.7125 32C60.1845 31.648 59.5685 31.2373 58.8645 30.768C58.1898 30.2693 57.5592 29.6387 56.9725 28.876C56.4152 29.3453 55.7698 29.8 55.0365 30.24C54.3032 30.68 53.5112 31.076 52.6605 31.428C51.8098 31.7507 50.9152 32.0147 49.9765 32.22C49.0672 32.4253 48.1432 32.528 47.2045 32.528C45.3272 32.528 43.7432 32.308 42.4525 31.868C41.1912 31.3987 40.1645 30.7973 39.3725 30.064C38.5805 29.3307 38.0085 28.5093 37.6565 27.6C37.3338 26.6613 37.1725 25.7227 37.1725 24.784C37.1725 23.376 37.4952 22.056 38.1405 20.824C38.8152 19.592 39.6365 18.4773 40.6045 17.48C41.5725 16.4533 42.6138 15.5587 43.7285 14.796C44.8432 14.004 45.8698 13.3733 46.8085 12.904C46.2805 12.112 45.8845 11.276 45.6205 10.396C45.3565 9.48667 45.2245 8.60667 45.2245 7.756C45.2245 6.7 45.4445 5.74667 45.8845 4.896C46.3538 4.016 46.9698 3.268 47.7325 2.652C48.5245 2.00667 49.4485 1.52267 50.5045 1.2C51.5605 0.847999 52.6898 0.671999 53.8925 0.671999C56.0925 0.671999 57.6912 1.12667 58.6885 2.036C59.6858 2.94533 60.1845 4.16266 60.1845 5.688C60.1845 6.568 59.9645 7.43333 59.5245 8.284C59.1138 9.10533 58.5565 9.88267 57.8525 10.616C57.1778 11.3493 56.4152 12.0387 55.5645 12.684C54.7432 13.3 53.9365 13.828 53.1445 14.268C54.6112 17.084 56.7378 20.0467 59.5245 23.156C59.8178 22.8333 60.1845 22.2907 60.6245 21.528C61.0938 20.7653 61.5338 19.9 61.9445 18.932C62.3845 17.964 62.7365 16.9373 63.0005 15.852C63.2938 14.7667 63.4258 13.74 63.3965 12.772C62.9565 12.684 62.5752 12.552 62.2525 12.376C61.9592 12.2 61.6512 11.98 61.3285 11.716L61.6805 10H71.7125L71.3165 11.716C70.4365 12.1853 69.3952 12.5373 68.1925 12.772C67.7818 14.0333 67.2978 15.28 66.7405 16.512C66.1832 17.744 65.5965 18.9027 64.9805 19.988C64.3645 21.0733 63.7338 22.0413 63.0885 22.892C62.4725 23.7427 61.9005 24.4027 61.3725 24.872C62.2232 25.7813 63.0885 26.588 63.9685 27.292C64.8778 27.996 65.7872 28.6413 66.6965 29.228L68.7205 30.284L68.3685 32H60.7125ZM90.7398 19.46C90.9451 18.5507 91.1211 17.744 91.2678 17.04C91.4438 16.336 91.5318 15.6027 91.5318 14.84C91.5318 14.3413 91.4144 13.916 91.1798 13.564C90.9744 13.1827 90.5931 12.992 90.0358 12.992C89.4784 12.992 88.8918 13.212 88.2758 13.652C87.6891 14.0627 87.1024 14.5907 86.5158 15.236C85.9584 15.852 85.4304 16.5413 84.9318 17.304C84.4624 18.0667 84.0811 18.7707 83.7878 19.416L81.1478 32H75.0758L78.8598 13.124L76.2638 12.552L76.3518 11.056C76.7624 10.8507 77.2904 10.66 77.9358 10.484C78.5811 10.2787 79.2851 10.1027 80.0478 9.956C80.8104 9.80933 81.5878 9.692 82.3798 9.604C83.2011 9.516 83.9784 9.472 84.7118 9.472L85.5918 10L84.2278 16.424H84.4478C84.9758 15.456 85.5918 14.5467 86.2958 13.696C86.9998 12.8453 87.7478 12.112 88.5398 11.496C89.3318 10.88 90.1678 10.396 91.0478 10.044C91.9278 9.66267 92.8224 9.472 93.7318 9.472C94.9638 9.472 95.9318 9.868 96.6358 10.66C97.3398 11.452 97.6918 12.508 97.6918 13.828C97.6918 14.5027 97.6184 15.28 97.4718 16.16C97.3251 17.0107 97.1491 17.8613 96.9438 18.712L94.5238 28.964H97.6918V30.46C97.3984 30.6947 97.0024 30.9293 96.5038 31.164C96.0344 31.3987 95.5064 31.604 94.9198 31.78C94.3624 31.956 93.7758 32.1027 93.1598 32.22C92.5438 32.3373 91.9571 32.396 91.3998 32.396C90.4024 32.396 89.6691 32.2053 89.1998 31.824C88.7598 31.4427 88.5398 31.0027 88.5398 30.504C88.5398 29.888 88.6131 29.228 88.7598 28.524C88.9064 27.82 89.0531 27.1453 89.1998 26.5L90.7398 19.46Z" fill="#4236AF"/>
</svg>
